<?xml version="1.0" encoding="UTF-8" standalone="no"?>
<!-- Created with Inkscape (http://www.inkscape.org/) -->

<svg
   xmlns:dc="http://purl.org/dc/elements/1.1/"
   xmlns:cc="http://creativecommons.org/ns#"
   xmlns:rdf="http://www.w3.org/1999/02/22-rdf-syntax-ns#"
   xmlns:svg="http://www.w3.org/2000/svg"
   xmlns="http://www.w3.org/2000/svg"
   xmlns:sodipodi="http://sodipodi.sourceforge.net/DTD/sodipodi-0.dtd"
   xmlns:inkscape="http://www.inkscape.org/namespaces/inkscape"
   width="744.09448819"
   height="1052.3622047"
   id="svg2"
   version="1.1"
   inkscape:version="0.47 r22583"
   sodipodi:docname="nanonode.svg">
  <defs
     id="defs4">
    <inkscape:perspective
       sodipodi:type="inkscape:persp3d"
       inkscape:vp_x="0 : 526.18109 : 1"
       inkscape:vp_y="0 : 1000 : 0"
       inkscape:vp_z="744.09448 : 526.18109 : 1"
       inkscape:persp3d-origin="372.04724 : 350.78739 : 1"
       id="perspective10" />
    <filter
       inkscape:collect="always"
       id="filter3919">
      <feGaussianBlur
         inkscape:collect="always"
         stdDeviation="1.0249158"
         id="feGaussianBlur3921" />
    </filter>
    <filter
       inkscape:collect="always"
       id="filter4136"
       x="-0.13100497"
       width="1.2620099"
       y="-0.089412902"
       height="1.1788258">
      <feGaussianBlur
         inkscape:collect="always"
         stdDeviation="0.9716202"
         id="feGaussianBlur4138" />
    </filter>
    <filter
       inkscape:collect="always"
       id="filter4140"
       x="-0.13100497"
       width="1.2620099"
       y="-0.1229899"
       height="1.2459798">
      <feGaussianBlur
         inkscape:collect="always"
         stdDeviation="0.9716202"
         id="feGaussianBlur4142" />
    </filter>
    <filter
       inkscape:collect="always"
       id="filter4144"
       x="-0.13100497"
       width="1.2620099"
       y="-0.1229899"
       height="1.2459798">
      <feGaussianBlur
         inkscape:collect="always"
         stdDeviation="0.9716202"
         id="feGaussianBlur4146" />
    </filter>
    <filter
       inkscape:collect="always"
       id="filter4148"
       x="-0.13100497"
       width="1.2620099"
       y="-0.1229899"
       height="1.2459798">
      <feGaussianBlur
         inkscape:collect="always"
         stdDeviation="0.9716202"
         id="feGaussianBlur4150" />
    </filter>
    <filter
       inkscape:collect="always"
       id="filter4152"
       x="-0.13100497"
       width="1.2620099"
       y="-0.089412902"
       height="1.1788258">
      <feGaussianBlur
         inkscape:collect="always"
         stdDeviation="0.9716202"
         id="feGaussianBlur4154" />
    </filter>
    <filter
       inkscape:collect="always"
       id="filter4156"
       x="-0.13100497"
       width="1.2620099"
       y="-0.1229899"
       height="1.2459798">
      <feGaussianBlur
         inkscape:collect="always"
         stdDeviation="0.9716202"
         id="feGaussianBlur4158" />
    </filter>
    <filter
       inkscape:collect="always"
       id="filter4160"
       x="-0.13100497"
       width="1.2620099"
       y="-0.089412902"
       height="1.1788258">
      <feGaussianBlur
         inkscape:collect="always"
         stdDeviation="0.9716202"
         id="feGaussianBlur4162" />
    </filter>
    <filter
       inkscape:collect="always"
       id="filter4164"
       x="-0.13100497"
       width="1.2620099"
       y="-0.1229899"
       height="1.2459798">
      <feGaussianBlur
         inkscape:collect="always"
         stdDeviation="0.9716202"
         id="feGaussianBlur4166" />
    </filter>
    <filter
       inkscape:collect="always"
       id="filter4168"
       x="-0.10264158"
       width="1.2052832"
       y="-0.30834889"
       height="1.6166978">
      <feGaussianBlur
         inkscape:collect="always"
         stdDeviation="0.9716202"
         id="feGaussianBlur4170" />
    </filter>
    <filter
       inkscape:collect="always"
       id="filter4172"
       x="-0.10264158"
       width="1.2052832"
       y="-0.30834889"
       height="1.6166978">
      <feGaussianBlur
         inkscape:collect="always"
         stdDeviation="0.9716202"
         id="feGaussianBlur4174" />
    </filter>
  </defs>
  <sodipodi:namedview
     id="base"
     pagecolor="#ffffff"
     bordercolor="#666666"
     borderopacity="1.0"
     inkscape:pageopacity="0.0"
     inkscape:pageshadow="2"
     inkscape:zoom="2.8284272"
     inkscape:cx="158.32231"
     inkscape:cy="659.66235"
     inkscape:document-units="px"
     inkscape:current-layer="layer1"
     showgrid="false"
     inkscape:window-width="1680"
     inkscape:window-height="994"
     inkscape:window-x="-4"
     inkscape:window-y="-3"
     inkscape:window-maximized="1" />
  <metadata
     id="metadata7">
    <rdf:RDF>
      <cc:Work
         rdf:about="">
        <dc:format>image/svg+xml</dc:format>
        <dc:type
           rdf:resource="http://purl.org/dc/dcmitype/StillImage" />
        <dc:title />
      </cc:Work>
    </rdf:RDF>
  </metadata>
  <g
     inkscape:label="Layer 1"
     inkscape:groupmode="layer"
     id="layer1">
    <g
       id="g4184">
      <path
         id="path4116"
         style="font-size:40px;font-style:normal;font-variant:normal;font-weight:normal;font-stretch:normal;fill:#000000;fill-opacity:1;stroke:none;font-family:Chumbly BRK;-inkscape-font-specification:Chumbly BRK;filter:url(#filter4136)"
         d="m 131.48442,453.00204 c 0,0.66667 0.34667,1.22667 1.04,1.68 0.69333,0.45334 1.53333,0.68 2.52,0.68 0.96,0 1.78666,-0.22666 2.48,-0.68 0.72,-0.48 1.08,-1.04 1.08,-1.68 l 0,-17.76 c 0,-0.53331 0.22666,-0.90664 0.68,-1.12 0.18666,-0.08 0.54666,-0.11998 1.08,-0.12 0.47999,2e-5 0.89333,0.08 1.24,0.24 0.37333,0.13336 0.55999,0.46669 0.56,1 l 0,17.76 c -1e-5,0.66667 0.34666,1.22667 1.04,1.68 0.69332,0.45334 1.53332,0.68 2.52,0.68 0.95999,0 1.78665,-0.22666 2.48,-0.68 0.71999,-0.48 1.07998,-1.04 1.08,-1.68 l 0,-17.8 c -2e-5,-1.38664 -0.68001,-2.66664 -2.04,-3.84 -1.62668,-1.38664 -3.92001,-2.07997 -6.88,-2.08 -2.98667,3e-5 -5.29333,0.69336 -6.92,2.08 -1.30666,1.12002 -1.96,2.40002 -1.96,3.84 l 0,17.8" />
      <path
         id="path4118"
         style="font-size:40px;font-style:normal;font-variant:normal;font-weight:normal;font-stretch:normal;fill:#000000;fill-opacity:1;stroke:none;font-family:Chumbly BRK;-inkscape-font-specification:Chumbly BRK;filter:url(#filter4140)"
         d="m 169.5188,442.32204 c -2e-5,-1.97332 -1.04002,-3.50665 -3.12,-4.6 -1.68002,-0.87998 -3.61335,-1.31998 -5.8,-1.32 l -2.64,0 c -1.89334,2e-5 -3.44001,0.44002 -4.64,1.32 -1.06667,0.80002 -1.6,1.73335 -1.6,2.8 0,0.69335 0.33333,1.26668 1,1.72 0.69333,0.45335 1.54666,0.68001 2.56,0.68 0.82666,1e-5 1.55999,-0.17332 2.2,-0.52 0.63999,-0.34665 1.05332,-0.77332 1.24,-1.28 l 1.84,0 c 0.95999,2e-5 1.54665,0.22668 1.76,0.68 0.0533,0.16002 0.08,0.33335 0.08,0.52 l 0,1.2 -1.8,0 c -2.98667,10e-6 -5.29334,0.69335 -6.92,2.08 -1.30667,1.06668 -1.96,2.34668 -1.96,3.84 0,1.44001 0.66666,2.72 2,3.84 1.62666,1.38667 3.91999,2.08 6.88,2.08 2.98665,0 5.29332,-0.69333 6.92,-2.08 1.33331,-1.12 1.99998,-2.39999 2,-3.84 l 0,-7.12 m -7.12,7.08 c -1e-5,0.42667 -0.13335,0.73334 -0.4,0.92 -0.24001,0.18667 -0.70668,0.28001 -1.4,0.28 -0.48001,1e-5 -0.89334,-0.0667 -1.24,-0.2 -0.34668,-0.13333 -0.52001,-0.45333 -0.52,-0.96 -1e-5,-0.50666 0.22666,-0.86666 0.68,-1.08 0.18666,-0.08 0.54666,-0.11999 1.08,-0.12 l 1.8,0 0,1.16" />
      <path
         id="path4120"
         style="font-size:40px;font-style:normal;font-variant:normal;font-weight:normal;font-stretch:normal;fill:#000000;fill-opacity:1;stroke:none;font-family:Chumbly BRK;-inkscape-font-specification:Chumbly BRK;filter:url(#filter4144)"
         d="m 171.95317,453.00204 c 0,0.66667 0.34667,1.22667 1.04,1.68 0.69333,0.45334 1.53333,0.68 2.52,0.68 0.96,0 1.78666,-0.22666 2.48,-0.68 0.72,-0.48 1.08,-1.04 1.08,-1.68 l 0,-10.64 c 0,-0.53332 0.22666,-0.90665 0.68,-1.12 0.18666,-0.08 0.54666,-0.11998 1.08,-0.12 0.47999,2e-5 0.89333,0.08 1.24,0.24 0.37333,0.13335 0.55999,0.46668 0.56,1 l 0,10.64 c -1e-5,0.66667 0.34666,1.22667 1.04,1.68 0.69332,0.45334 1.53332,0.68 2.52,0.68 0.95999,0 1.78665,-0.22666 2.48,-0.68 0.71999,-0.48 1.07998,-1.04 1.08,-1.68 l 0,-10.68 c -2e-5,-1.41332 -0.68001,-2.70665 -2.04,-3.88 -1.65334,-1.35998 -3.94668,-2.03998 -6.88,-2.04 -2.98667,2e-5 -5.29333,0.69335 -6.92,2.08 -1.30666,1.06668 -1.96,2.34668 -1.96,3.84 l 0,10.68" />
      <path
         id="path4122"
         style="font-size:40px;font-style:normal;font-variant:normal;font-weight:normal;font-stretch:normal;fill:#000000;fill-opacity:1;stroke:none;font-family:Chumbly BRK;-inkscape-font-specification:Chumbly BRK;filter:url(#filter4148)"
         d="m 192.18755,449.44204 c 0,1.44001 0.66666,2.72 2,3.84 1.62666,1.38667 3.91999,2.08 6.88,2.08 2.98665,0 5.29332,-0.69333 6.92,-2.08 1.33331,-1.12 1.99998,-2.39999 2,-3.84 l 0,-7.12 c -2e-5,-1.41332 -0.68002,-2.70665 -2.04,-3.88 -1.65335,-1.35998 -3.94668,-2.03998 -6.88,-2.04 -2.98667,2e-5 -5.29334,0.69335 -6.92,2.08 -1.30667,1.06668 -1.96,2.34668 -1.96,3.84 l 0,7.12 m 7.12,-7.08 c -1e-5,-0.53332 0.22666,-0.90665 0.68,-1.12 0.18666,-0.08 0.54666,-0.11998 1.08,-0.12 0.47999,2e-5 0.89332,0.08 1.24,0.24 0.37332,0.13335 0.55999,0.46668 0.56,1 l 0,7.04 c -1e-5,0.42667 -0.13335,0.73334 -0.4,0.92 -0.24001,0.18667 -0.70668,0.28001 -1.4,0.28 -0.50668,1e-5 -0.88001,-0.0533 -1.12,-0.16 -0.42668,-0.18666 -0.64001,-0.53333 -0.64,-1.04 l 0,-7.04" />
      <path
         id="path4124"
         style="font-size:40px;font-style:normal;font-variant:normal;font-weight:normal;font-stretch:normal;fill:#000000;fill-opacity:1;stroke:none;font-family:Chumbly BRK;-inkscape-font-specification:Chumbly BRK;filter:url(#filter4152)"
         d="m 212.42192,453.00204 c 0,0.66667 0.34667,1.22667 1.04,1.68 0.69333,0.45334 1.53333,0.68 2.52,0.68 0.96,0 1.78666,-0.22666 2.48,-0.68 0.72,-0.48 1.08,-1.04 1.08,-1.68 l 0,-17.76 c 0,-0.53331 0.22666,-0.90664 0.68,-1.12 0.18666,-0.08 0.54666,-0.11998 1.08,-0.12 0.47999,2e-5 0.89333,0.08 1.24,0.24 0.37333,0.13336 0.55999,0.46669 0.56,1 l 0,17.76 c -1e-5,0.66667 0.34666,1.22667 1.04,1.68 0.69332,0.45334 1.53332,0.68 2.52,0.68 0.95999,0 1.78665,-0.22666 2.48,-0.68 0.71999,-0.48 1.07998,-1.04 1.08,-1.68 l 0,-17.8 c -2e-5,-1.38664 -0.68001,-2.66664 -2.04,-3.84 -1.62668,-1.38664 -3.92001,-2.07997 -6.88,-2.08 -2.98667,3e-5 -5.29333,0.69336 -6.92,2.08 -1.30666,1.12002 -1.96,2.40002 -1.96,3.84 l 0,17.8" />
      <path
         id="path4126"
         style="font-size:40px;font-style:normal;font-variant:normal;font-weight:normal;font-stretch:normal;fill:#000000;fill-opacity:1;stroke:none;font-family:Chumbly BRK;-inkscape-font-specification:Chumbly BRK;filter:url(#filter4156)"
         d="m 232.6563,449.44204 c 0,1.44001 0.66666,2.72 2,3.84 1.62666,1.38667 3.91999,2.08 6.88,2.08 2.98665,0 5.29332,-0.69333 6.92,-2.08 1.33331,-1.12 1.99998,-2.39999 2,-3.84 l 0,-7.12 c -2e-5,-1.41332 -0.68002,-2.70665 -2.04,-3.88 -1.65335,-1.35998 -3.94668,-2.03998 -6.88,-2.04 -2.98667,2e-5 -5.29334,0.69335 -6.92,2.08 -1.30667,1.06668 -1.96,2.34668 -1.96,3.84 l 0,7.12 m 7.12,-7.08 c -1e-5,-0.53332 0.22666,-0.90665 0.68,-1.12 0.18666,-0.08 0.54666,-0.11998 1.08,-0.12 0.47999,2e-5 0.89332,0.08 1.24,0.24 0.37332,0.13335 0.55999,0.46668 0.56,1 l 0,7.04 c -1e-5,0.42667 -0.13335,0.73334 -0.4,0.92 -0.24001,0.18667 -0.70668,0.28001 -1.4,0.28 -0.50668,1e-5 -0.88001,-0.0533 -1.12,-0.16 -0.42668,-0.18666 -0.64001,-0.53333 -0.64,-1.04 l 0,-7.04" />
      <path
         id="path4128"
         style="font-size:40px;font-style:normal;font-variant:normal;font-weight:normal;font-stretch:normal;fill:#000000;fill-opacity:1;stroke:none;font-family:Chumbly BRK;-inkscape-font-specification:Chumbly BRK;filter:url(#filter4160)"
         d="m 252.89067,449.44204 c 0,1.44001 0.66667,2.72 2,3.84 1.62667,1.38667 3.92,2.08 6.88,2.08 2.98666,0 5.29332,-0.69333 6.92,-2.08 1.33332,-1.12 1.99998,-2.39999 2,-3.84 l 0,-17.8 c -2e-5,-0.66664 -0.34668,-1.22664 -1.04,-1.68 -0.69335,-0.45331 -1.53335,-0.67997 -2.52,-0.68 -0.98668,3e-5 -1.82668,0.22669 -2.52,0.68 -0.69334,0.45336 -1.04001,1.01336 -1.04,1.68 l 0,4.76 -1.8,0 c -2.18667,2e-5 -4.12,0.44002 -5.8,1.32 -2.05333,1.09335 -3.08,2.62668 -3.08,4.6 l 0,7.12 m 7.12,-7.12 c 0,-0.34665 0.08,-0.59998 0.24,-0.76 0.29333,-0.29332 0.82666,-0.43998 1.6,-0.44 l 1.72,0 0,8.28 c -1e-5,0.42667 -0.13334,0.73334 -0.4,0.92 -0.24001,0.18667 -0.70667,0.28001 -1.4,0.28 -0.50667,1e-5 -0.88001,-0.0533 -1.12,-0.16 -0.42667,-0.18666 -0.64,-0.53333 -0.64,-1.04 l 0,-7.08" />
      <path
         id="path4130"
         style="font-size:40px;font-style:normal;font-variant:normal;font-weight:normal;font-stretch:normal;fill:#000000;fill-opacity:1;stroke:none;font-family:Chumbly BRK;-inkscape-font-specification:Chumbly BRK;filter:url(#filter4164)"
         d="m 280.24505,448.24204 1.76,0 c 2.98665,1e-5 5.29332,-0.69332 6.92,-2.08 1.33331,-1.11999 1.99998,-2.39999 2,-3.84 -2e-5,-1.41332 -0.68002,-2.70665 -2.04,-3.88 -1.65335,-1.35998 -3.94668,-2.03998 -6.88,-2.04 -2.98667,2e-5 -5.29334,0.69335 -6.92,2.08 -1.30667,1.06668 -1.96,2.34668 -1.96,3.84 l 0,7.12 c 0,2.00001 1.04,3.53334 3.12,4.6 1.62666,0.88 3.54666,1.32 5.76,1.32 l 2.68,0 c 0.95999,0 1.82665,-0.10666 2.6,-0.32 0.77332,-0.24 1.42665,-0.54666 1.96,-0.92 0.53331,-0.4 0.94665,-0.84 1.24,-1.32 0.29331,-0.50666 0.43998,-1.03999 0.44,-1.6 -2e-5,-0.66666 -0.34669,-1.22666 -1.04,-1.68 -0.69335,-0.45333 -1.53335,-0.67999 -2.52,-0.68 -0.82668,10e-6 -1.56002,0.17334 -2.2,0.52 -0.64001,0.34667 -1.05335,0.76001 -1.24,1.24 l -1.84,0 c -1.22668,1e-5 -1.84001,-0.38666 -1.84,-1.16 l 0,-1.2 m 0,-5.88 c -10e-6,-0.53332 0.22666,-0.90665 0.68,-1.12 0.18666,-0.08 0.54666,-0.11998 1.08,-0.12 0.47999,2e-5 0.89332,0.08 1.24,0.24 0.37332,0.13335 0.55999,0.45335 0.56,0.96 -10e-6,0.42668 -0.13335,0.73335 -0.4,0.92 -0.24001,0.18668 -0.70668,0.28001 -1.4,0.28 l -1.76,0 0,-1.16" />
      <path
         style="font-size:40px;font-style:normal;font-variant:normal;font-weight:normal;font-stretch:normal;text-indent:0;text-align:start;text-decoration:none;line-height:normal;letter-spacing:normal;word-spacing:normal;text-transform:none;direction:ltr;block-progression:tb;writing-mode:lr-tb;text-anchor:start;color:#000000;fill:#000000;fill-opacity:1;stroke:none;stroke-width:0.99999981999999998;marker:none;visibility:visible;display:inline;overflow:visible;enable-background:accumulate;font-family:Chumbly BRK;-inkscape-font-specification:Chumbly BRK;filter:url(#filter4168)"
         d="m 140.4938,422.938 c -4.77651,5e-5 -8.60394,1.07557 -11.46875,3.21875 l 0.6875,0.71875 c 2.6463,-1.93672 6.2148,-2.93746 10.78125,-2.9375 4.4321,4e-5 7.93905,0.94986 10.5625,2.8125 l 0.6875,-0.71875 c -2.84312,-2.06256 -6.6039,-3.09371 -11.25,-3.09375 z m 0,1.5625 c -4.27974,4e-5 -7.7144,0.95552 -10.28125,2.875 l 0.71875,0.6875 c 2.34408,-1.69624 5.51188,-2.56246 9.5625,-2.5625 3.93987,4e-5 7.04877,0.83311 9.375,2.46875 l 0.6875,-0.71875 c -2.54443,-1.83902 -5.90862,-2.74996 -10.0625,-2.75 z m 0,1.5625 c -3.75739,4e-5 -6.80119,0.82346 -9.09375,2.46875 l 0.6875,0.71875 0.0312,0 c 2.06806,-1.4427 4.82946,-2.18746 8.375,-2.1875 3.4302,3e-5 6.1353,0.71697 8.1875,2.09375 L 149.4,428.438 c -2.27205,-1.58426 -5.25023,-2.37496 -8.90625,-2.375 z m -0.0937,1.59375 c -3.22453,3e-5 -5.85326,0.67588 -7.8125,2.09375 l 0.75,0.75 c 1.73703,-1.20598 4.05749,-1.84372 7.0625,-1.84375 2.94527,3e-5 5.2399,0.62819 6.96875,1.8125 l 0.75,-0.75 c -1.95237,-1.39075 -4.55198,-2.06247 -7.71875,-2.0625 z"
         id="path4132" />
      <path
         id="path4134"
         d="m 221.4313,422.938 c -4.77651,5e-5 -8.60394,1.07557 -11.46875,3.21875 l 0.6875,0.71875 c 2.6463,-1.93672 6.2148,-2.93746 10.78125,-2.9375 4.4321,4e-5 7.93905,0.94986 10.5625,2.8125 l 0.6875,-0.71875 c -2.84312,-2.06256 -6.6039,-3.09371 -11.25,-3.09375 z m 0,1.5625 c -4.27974,4e-5 -7.7144,0.95552 -10.28125,2.875 l 0.71875,0.6875 c 2.34408,-1.69624 5.51188,-2.56246 9.5625,-2.5625 3.93987,4e-5 7.04877,0.83311 9.375,2.46875 l 0.6875,-0.71875 c -2.54443,-1.83902 -5.90862,-2.74996 -10.0625,-2.75 z m 0,1.5625 c -3.75739,4e-5 -6.80119,0.82346 -9.09375,2.46875 l 0.6875,0.71875 0.0312,0 c 2.06806,-1.4427 4.82946,-2.18746 8.375,-2.1875 3.4302,3e-5 6.1353,0.71697 8.1875,2.09375 l 0.71875,-0.71875 c -2.27205,-1.58426 -5.25023,-2.37496 -8.90625,-2.375 z m -0.0937,1.59375 c -3.22453,3e-5 -5.85326,0.67588 -7.8125,2.09375 l 0.75,0.75 c 1.73703,-1.20598 4.05749,-1.84372 7.0625,-1.84375 2.94527,3e-5 5.2399,0.62819 6.96875,1.8125 l 0.75,-0.75 c -1.95237,-1.39075 -4.55198,-2.06247 -7.71875,-2.0625 z"
         style="font-size:40px;font-style:normal;font-variant:normal;font-weight:normal;font-stretch:normal;text-indent:0;text-align:start;text-decoration:none;line-height:normal;letter-spacing:normal;word-spacing:normal;text-transform:none;direction:ltr;block-progression:tb;writing-mode:lr-tb;text-anchor:start;color:#000000;fill:#000000;fill-opacity:1;stroke:none;stroke-width:0.99999981999999998;marker:none;visibility:visible;display:inline;overflow:visible;enable-background:accumulate;font-family:Chumbly BRK;-inkscape-font-specification:Chumbly BRK;filter:url(#filter4172)" />
      <path
         d="m 131.48442,453.00204 c 0,0.66667 0.34667,1.22667 1.04,1.68 0.69333,0.45334 1.53333,0.68 2.52,0.68 0.96,0 1.78666,-0.22666 2.48,-0.68 0.72,-0.48 1.08,-1.04 1.08,-1.68 l 0,-17.76 c 0,-0.53331 0.22666,-0.90664 0.68,-1.12 0.18666,-0.08 0.54666,-0.11998 1.08,-0.12 0.47999,2e-5 0.89333,0.08 1.24,0.24 0.37333,0.13336 0.55999,0.46669 0.56,1 l 0,17.76 c -1e-5,0.66667 0.34666,1.22667 1.04,1.68 0.69332,0.45334 1.53332,0.68 2.52,0.68 0.95999,0 1.78665,-0.22666 2.48,-0.68 0.71999,-0.48 1.07998,-1.04 1.08,-1.68 l 0,-17.8 c -2e-5,-1.38664 -0.68001,-2.66664 -2.04,-3.84 -1.62668,-1.38664 -3.92001,-2.07997 -6.88,-2.08 -2.98667,3e-5 -5.29333,0.69336 -6.92,2.08 -1.30666,1.12002 -1.96,2.40002 -1.96,3.84 l 0,17.8"
         style="font-size:40px;font-style:normal;font-variant:normal;font-weight:normal;font-stretch:normal;fill:#1e90ff;fill-opacity:1;stroke:none;font-family:Chumbly BRK;-inkscape-font-specification:Chumbly BRK"
         id="path3085" />
      <path
         d="m 169.5188,442.32204 c -2e-5,-1.97332 -1.04002,-3.50665 -3.12,-4.6 -1.68002,-0.87998 -3.61335,-1.31998 -5.8,-1.32 l -2.64,0 c -1.89334,2e-5 -3.44001,0.44002 -4.64,1.32 -1.06667,0.80002 -1.6,1.73335 -1.6,2.8 0,0.69335 0.33333,1.26668 1,1.72 0.69333,0.45335 1.54666,0.68001 2.56,0.68 0.82666,1e-5 1.55999,-0.17332 2.2,-0.52 0.63999,-0.34665 1.05332,-0.77332 1.24,-1.28 l 1.84,0 c 0.95999,2e-5 1.54665,0.22668 1.76,0.68 0.0533,0.16002 0.08,0.33335 0.08,0.52 l 0,1.2 -1.8,0 c -2.98667,10e-6 -5.29334,0.69335 -6.92,2.08 -1.30667,1.06668 -1.96,2.34668 -1.96,3.84 0,1.44001 0.66666,2.72 2,3.84 1.62666,1.38667 3.91999,2.08 6.88,2.08 2.98665,0 5.29332,-0.69333 6.92,-2.08 1.33331,-1.12 1.99998,-2.39999 2,-3.84 l 0,-7.12 m -7.12,7.08 c -1e-5,0.42667 -0.13335,0.73334 -0.4,0.92 -0.24001,0.18667 -0.70668,0.28001 -1.4,0.28 -0.48001,1e-5 -0.89334,-0.0667 -1.24,-0.2 -0.34668,-0.13333 -0.52001,-0.45333 -0.52,-0.96 -1e-5,-0.50666 0.22666,-0.86666 0.68,-1.08 0.18666,-0.08 0.54666,-0.11999 1.08,-0.12 l 1.8,0 0,1.16"
         style="font-size:40px;font-style:normal;font-variant:normal;font-weight:normal;font-stretch:normal;fill:#1e90ff;fill-opacity:1;stroke:none;font-family:Chumbly BRK;-inkscape-font-specification:Chumbly BRK"
         id="path3087" />
      <path
         d="m 171.95317,453.00204 c 0,0.66667 0.34667,1.22667 1.04,1.68 0.69333,0.45334 1.53333,0.68 2.52,0.68 0.96,0 1.78666,-0.22666 2.48,-0.68 0.72,-0.48 1.08,-1.04 1.08,-1.68 l 0,-10.64 c 0,-0.53332 0.22666,-0.90665 0.68,-1.12 0.18666,-0.08 0.54666,-0.11998 1.08,-0.12 0.47999,2e-5 0.89333,0.08 1.24,0.24 0.37333,0.13335 0.55999,0.46668 0.56,1 l 0,10.64 c -1e-5,0.66667 0.34666,1.22667 1.04,1.68 0.69332,0.45334 1.53332,0.68 2.52,0.68 0.95999,0 1.78665,-0.22666 2.48,-0.68 0.71999,-0.48 1.07998,-1.04 1.08,-1.68 l 0,-10.68 c -2e-5,-1.41332 -0.68001,-2.70665 -2.04,-3.88 -1.65334,-1.35998 -3.94668,-2.03998 -6.88,-2.04 -2.98667,2e-5 -5.29333,0.69335 -6.92,2.08 -1.30666,1.06668 -1.96,2.34668 -1.96,3.84 l 0,10.68"
         style="font-size:40px;font-style:normal;font-variant:normal;font-weight:normal;font-stretch:normal;fill:#1e90ff;fill-opacity:1;stroke:none;font-family:Chumbly BRK;-inkscape-font-specification:Chumbly BRK"
         id="path3089" />
      <path
         d="m 192.18755,449.44204 c 0,1.44001 0.66666,2.72 2,3.84 1.62666,1.38667 3.91999,2.08 6.88,2.08 2.98665,0 5.29332,-0.69333 6.92,-2.08 1.33331,-1.12 1.99998,-2.39999 2,-3.84 l 0,-7.12 c -2e-5,-1.41332 -0.68002,-2.70665 -2.04,-3.88 -1.65335,-1.35998 -3.94668,-2.03998 -6.88,-2.04 -2.98667,2e-5 -5.29334,0.69335 -6.92,2.08 -1.30667,1.06668 -1.96,2.34668 -1.96,3.84 l 0,7.12 m 7.12,-7.08 c -1e-5,-0.53332 0.22666,-0.90665 0.68,-1.12 0.18666,-0.08 0.54666,-0.11998 1.08,-0.12 0.47999,2e-5 0.89332,0.08 1.24,0.24 0.37332,0.13335 0.55999,0.46668 0.56,1 l 0,7.04 c -1e-5,0.42667 -0.13335,0.73334 -0.4,0.92 -0.24001,0.18667 -0.70668,0.28001 -1.4,0.28 -0.50668,1e-5 -0.88001,-0.0533 -1.12,-0.16 -0.42668,-0.18666 -0.64001,-0.53333 -0.64,-1.04 l 0,-7.04"
         style="font-size:40px;font-style:normal;font-variant:normal;font-weight:normal;font-stretch:normal;fill:#1e90ff;fill-opacity:1;stroke:none;font-family:Chumbly BRK;-inkscape-font-specification:Chumbly BRK"
         id="path3091" />
      <path
         d="m 212.42192,453.00204 c 0,0.66667 0.34667,1.22667 1.04,1.68 0.69333,0.45334 1.53333,0.68 2.52,0.68 0.96,0 1.78666,-0.22666 2.48,-0.68 0.72,-0.48 1.08,-1.04 1.08,-1.68 l 0,-17.76 c 0,-0.53331 0.22666,-0.90664 0.68,-1.12 0.18666,-0.08 0.54666,-0.11998 1.08,-0.12 0.47999,2e-5 0.89333,0.08 1.24,0.24 0.37333,0.13336 0.55999,0.46669 0.56,1 l 0,17.76 c -1e-5,0.66667 0.34666,1.22667 1.04,1.68 0.69332,0.45334 1.53332,0.68 2.52,0.68 0.95999,0 1.78665,-0.22666 2.48,-0.68 0.71999,-0.48 1.07998,-1.04 1.08,-1.68 l 0,-17.8 c -2e-5,-1.38664 -0.68001,-2.66664 -2.04,-3.84 -1.62668,-1.38664 -3.92001,-2.07997 -6.88,-2.08 -2.98667,3e-5 -5.29333,0.69336 -6.92,2.08 -1.30666,1.12002 -1.96,2.40002 -1.96,3.84 l 0,17.8"
         style="font-size:40px;font-style:normal;font-variant:normal;font-weight:normal;font-stretch:normal;fill:#1e90ff;fill-opacity:1;stroke:none;font-family:Chumbly BRK;-inkscape-font-specification:Chumbly BRK"
         id="path3093" />
      <path
         d="m 232.6563,449.44204 c 0,1.44001 0.66666,2.72 2,3.84 1.62666,1.38667 3.91999,2.08 6.88,2.08 2.98665,0 5.29332,-0.69333 6.92,-2.08 1.33331,-1.12 1.99998,-2.39999 2,-3.84 l 0,-7.12 c -2e-5,-1.41332 -0.68002,-2.70665 -2.04,-3.88 -1.65335,-1.35998 -3.94668,-2.03998 -6.88,-2.04 -2.98667,2e-5 -5.29334,0.69335 -6.92,2.08 -1.30667,1.06668 -1.96,2.34668 -1.96,3.84 l 0,7.12 m 7.12,-7.08 c -1e-5,-0.53332 0.22666,-0.90665 0.68,-1.12 0.18666,-0.08 0.54666,-0.11998 1.08,-0.12 0.47999,2e-5 0.89332,0.08 1.24,0.24 0.37332,0.13335 0.55999,0.46668 0.56,1 l 0,7.04 c -1e-5,0.42667 -0.13335,0.73334 -0.4,0.92 -0.24001,0.18667 -0.70668,0.28001 -1.4,0.28 -0.50668,1e-5 -0.88001,-0.0533 -1.12,-0.16 -0.42668,-0.18666 -0.64001,-0.53333 -0.64,-1.04 l 0,-7.04"
         style="font-size:40px;font-style:normal;font-variant:normal;font-weight:normal;font-stretch:normal;fill:#1e90ff;fill-opacity:1;stroke:none;font-family:Chumbly BRK;-inkscape-font-specification:Chumbly BRK"
         id="path3095" />
      <path
         d="m 252.89067,449.44204 c 0,1.44001 0.66667,2.72 2,3.84 1.62667,1.38667 3.92,2.08 6.88,2.08 2.98666,0 5.29332,-0.69333 6.92,-2.08 1.33332,-1.12 1.99998,-2.39999 2,-3.84 l 0,-17.8 c -2e-5,-0.66664 -0.34668,-1.22664 -1.04,-1.68 -0.69335,-0.45331 -1.53335,-0.67997 -2.52,-0.68 -0.98668,3e-5 -1.82668,0.22669 -2.52,0.68 -0.69334,0.45336 -1.04001,1.01336 -1.04,1.68 l 0,4.76 -1.8,0 c -2.18667,2e-5 -4.12,0.44002 -5.8,1.32 -2.05333,1.09335 -3.08,2.62668 -3.08,4.6 l 0,7.12 m 7.12,-7.12 c 0,-0.34665 0.08,-0.59998 0.24,-0.76 0.29333,-0.29332 0.82666,-0.43998 1.6,-0.44 l 1.72,0 0,8.28 c -1e-5,0.42667 -0.13334,0.73334 -0.4,0.92 -0.24001,0.18667 -0.70667,0.28001 -1.4,0.28 -0.50667,1e-5 -0.88001,-0.0533 -1.12,-0.16 -0.42667,-0.18666 -0.64,-0.53333 -0.64,-1.04 l 0,-7.08"
         style="font-size:40px;font-style:normal;font-variant:normal;font-weight:normal;font-stretch:normal;fill:#1e90ff;fill-opacity:1;stroke:none;font-family:Chumbly BRK;-inkscape-font-specification:Chumbly BRK"
         id="path3097" />
      <path
         d="m 280.24505,448.24204 1.76,0 c 2.98665,1e-5 5.29332,-0.69332 6.92,-2.08 1.33331,-1.11999 1.99998,-2.39999 2,-3.84 -2e-5,-1.41332 -0.68002,-2.70665 -2.04,-3.88 -1.65335,-1.35998 -3.94668,-2.03998 -6.88,-2.04 -2.98667,2e-5 -5.29334,0.69335 -6.92,2.08 -1.30667,1.06668 -1.96,2.34668 -1.96,3.84 l 0,7.12 c 0,2.00001 1.04,3.53334 3.12,4.6 1.62666,0.88 3.54666,1.32 5.76,1.32 l 2.68,0 c 0.95999,0 1.82665,-0.10666 2.6,-0.32 0.77332,-0.24 1.42665,-0.54666 1.96,-0.92 0.53331,-0.4 0.94665,-0.84 1.24,-1.32 0.29331,-0.50666 0.43998,-1.03999 0.44,-1.6 -2e-5,-0.66666 -0.34669,-1.22666 -1.04,-1.68 -0.69335,-0.45333 -1.53335,-0.67999 -2.52,-0.68 -0.82668,10e-6 -1.56002,0.17334 -2.2,0.52 -0.64001,0.34667 -1.05335,0.76001 -1.24,1.24 l -1.84,0 c -1.22668,1e-5 -1.84001,-0.38666 -1.84,-1.16 l 0,-1.2 m 0,-5.88 c -10e-6,-0.53332 0.22666,-0.90665 0.68,-1.12 0.18666,-0.08 0.54666,-0.11998 1.08,-0.12 0.47999,2e-5 0.89332,0.08 1.24,0.24 0.37332,0.13335 0.55999,0.45335 0.56,0.96 -10e-6,0.42668 -0.13335,0.73335 -0.4,0.92 -0.24001,0.18668 -0.70668,0.28001 -1.4,0.28 l -1.76,0 0,-1.16"
         style="font-size:40px;font-style:normal;font-variant:normal;font-weight:normal;font-stretch:normal;fill:#1e90ff;fill-opacity:1;stroke:none;font-family:Chumbly BRK;-inkscape-font-specification:Chumbly BRK"
         id="path3099" />
      <path
         id="path3101"
         d="m 140.4938,422.938 c -4.77651,5e-5 -8.60394,1.07557 -11.46875,3.21875 l 0.6875,0.71875 c 2.6463,-1.93672 6.2148,-2.93746 10.78125,-2.9375 4.4321,4e-5 7.93905,0.94986 10.5625,2.8125 l 0.6875,-0.71875 c -2.84312,-2.06256 -6.6039,-3.09371 -11.25,-3.09375 z m 0,1.5625 c -4.27974,4e-5 -7.7144,0.95552 -10.28125,2.875 l 0.71875,0.6875 c 2.34408,-1.69624 5.51188,-2.56246 9.5625,-2.5625 3.93987,4e-5 7.04877,0.83311 9.375,2.46875 l 0.6875,-0.71875 c -2.54443,-1.83902 -5.90862,-2.74996 -10.0625,-2.75 z m 0,1.5625 c -3.75739,4e-5 -6.80119,0.82346 -9.09375,2.46875 l 0.6875,0.71875 0.0312,0 c 2.06806,-1.4427 4.82946,-2.18746 8.375,-2.1875 3.4302,3e-5 6.1353,0.71697 8.1875,2.09375 L 149.4,428.438 c -2.27205,-1.58426 -5.25023,-2.37496 -8.90625,-2.375 z m -0.0937,1.59375 c -3.22453,3e-5 -5.85326,0.67588 -7.8125,2.09375 l 0.75,0.75 c 1.73703,-1.20598 4.05749,-1.84372 7.0625,-1.84375 2.94527,3e-5 5.2399,0.62819 6.96875,1.8125 l 0.75,-0.75 c -1.95237,-1.39075 -4.55198,-2.06247 -7.71875,-2.0625 z"
         style="font-size:40px;font-style:normal;font-variant:normal;font-weight:normal;font-stretch:normal;text-indent:0;text-align:start;text-decoration:none;line-height:normal;letter-spacing:normal;word-spacing:normal;text-transform:none;direction:ltr;block-progression:tb;writing-mode:lr-tb;text-anchor:start;color:#000000;fill:#1e90ff;fill-opacity:1;stroke:none;stroke-width:0.99999982;marker:none;visibility:visible;display:inline;overflow:visible;enable-background:accumulate;font-family:Chumbly BRK;-inkscape-font-specification:Chumbly BRK" />
      <path
         style="font-size:40px;font-style:normal;font-variant:normal;font-weight:normal;font-stretch:normal;text-indent:0;text-align:start;text-decoration:none;line-height:normal;letter-spacing:normal;word-spacing:normal;text-transform:none;direction:ltr;block-progression:tb;writing-mode:lr-tb;text-anchor:start;color:#000000;fill:#1e90ff;fill-opacity:1;stroke:none;stroke-width:0.99999982;marker:none;visibility:visible;display:inline;overflow:visible;enable-background:accumulate;font-family:Chumbly BRK;-inkscape-font-specification:Chumbly BRK"
         d="m 221.4313,422.938 c -4.77651,5e-5 -8.60394,1.07557 -11.46875,3.21875 l 0.6875,0.71875 c 2.6463,-1.93672 6.2148,-2.93746 10.78125,-2.9375 4.4321,4e-5 7.93905,0.94986 10.5625,2.8125 l 0.6875,-0.71875 c -2.84312,-2.06256 -6.6039,-3.09371 -11.25,-3.09375 z m 0,1.5625 c -4.27974,4e-5 -7.7144,0.95552 -10.28125,2.875 l 0.71875,0.6875 c 2.34408,-1.69624 5.51188,-2.56246 9.5625,-2.5625 3.93987,4e-5 7.04877,0.83311 9.375,2.46875 l 0.6875,-0.71875 c -2.54443,-1.83902 -5.90862,-2.74996 -10.0625,-2.75 z m 0,1.5625 c -3.75739,4e-5 -6.80119,0.82346 -9.09375,2.46875 l 0.6875,0.71875 0.0312,0 c 2.06806,-1.4427 4.82946,-2.18746 8.375,-2.1875 3.4302,3e-5 6.1353,0.71697 8.1875,2.09375 l 0.71875,-0.71875 c -2.27205,-1.58426 -5.25023,-2.37496 -8.90625,-2.375 z m -0.0937,1.59375 c -3.22453,3e-5 -5.85326,0.67588 -7.8125,2.09375 l 0.75,0.75 c 1.73703,-1.20598 4.05749,-1.84372 7.0625,-1.84375 2.94527,3e-5 5.2399,0.62819 6.96875,1.8125 l 0.75,-0.75 c -1.95237,-1.39075 -4.55198,-2.06247 -7.71875,-2.0625 z"
         id="path3103" />
    </g>
    <g
       id="g4021">
      <path
         d="m 131.48442,375.22029 c 0,0.66667 0.34667,1.22667 1.04,1.68 0.69333,0.45334 1.53333,0.68 2.52,0.68 0.96,0 1.78666,-0.22666 2.48,-0.68 0.72,-0.48 1.08,-1.04 1.08,-1.68 l 0,-17.76 c 0,-0.53331 0.22666,-0.90664 0.68,-1.12 0.18666,-0.08 0.54666,-0.11998 1.08,-0.12 0.47999,2e-5 0.89333,0.08 1.24,0.24 0.37333,0.13336 0.55999,0.46669 0.56,1 l 0,17.76 c -1e-5,0.66667 0.34666,1.22667 1.04,1.68 0.69332,0.45334 1.53332,0.68 2.52,0.68 0.95999,0 1.78665,-0.22666 2.48,-0.68 0.71999,-0.48 1.07998,-1.04 1.08,-1.68 l 0,-17.8 c -2e-5,-1.38664 -0.68001,-2.66664 -2.04,-3.84 -1.62668,-1.38664 -3.92001,-2.07997 -6.88,-2.08 -2.98667,3e-5 -5.29333,0.69336 -6.92,2.08 -1.30666,1.12002 -1.96,2.40002 -1.96,3.84 l 0,17.8"
         style="font-size:40px;font-style:normal;font-variant:normal;font-weight:normal;font-stretch:normal;fill:#000000;fill-opacity:1;stroke:none;font-family:Chumbly BRK;-inkscape-font-specification:Chumbly BRK"
         id="path2847" />
      <path
         d="m 169.5188,364.54029 c -2e-5,-1.97332 -1.04002,-3.50665 -3.12,-4.6 -1.68002,-0.87998 -3.61335,-1.31998 -5.8,-1.32 l -2.64,0 c -1.89334,2e-5 -3.44001,0.44002 -4.64,1.32 -1.06667,0.80002 -1.6,1.73335 -1.6,2.8 0,0.69335 0.33333,1.26668 1,1.72 0.69333,0.45335 1.54666,0.68001 2.56,0.68 0.82666,1e-5 1.55999,-0.17332 2.2,-0.52 0.63999,-0.34665 1.05332,-0.77332 1.24,-1.28 l 1.84,0 c 0.95999,2e-5 1.54665,0.22668 1.76,0.68 0.0533,0.16002 0.08,0.33335 0.08,0.52 l 0,1.2 -1.8,0 c -2.98667,10e-6 -5.29334,0.69335 -6.92,2.08 -1.30667,1.06668 -1.96,2.34668 -1.96,3.84 0,1.44001 0.66666,2.72 2,3.84 1.62666,1.38667 3.91999,2.08 6.88,2.08 2.98665,0 5.29332,-0.69333 6.92,-2.08 1.33331,-1.12 1.99998,-2.39999 2,-3.84 l 0,-7.12 m -7.12,7.08 c -1e-5,0.42667 -0.13335,0.73334 -0.4,0.92 -0.24001,0.18667 -0.70668,0.28001 -1.4,0.28 -0.48001,10e-6 -0.89334,-0.0667 -1.24,-0.2 -0.34668,-0.13333 -0.52001,-0.45333 -0.52,-0.96 -1e-5,-0.50666 0.22666,-0.86666 0.68,-1.08 0.18666,-0.08 0.54666,-0.11999 1.08,-0.12 l 1.8,0 0,1.16"
         style="font-size:40px;font-style:normal;font-variant:normal;font-weight:normal;font-stretch:normal;fill:#000000;fill-opacity:1;stroke:none;font-family:Chumbly BRK;-inkscape-font-specification:Chumbly BRK"
         id="path2849" />
      <path
         d="m 171.95317,375.22029 c 0,0.66667 0.34667,1.22667 1.04,1.68 0.69333,0.45334 1.53333,0.68 2.52,0.68 0.96,0 1.78666,-0.22666 2.48,-0.68 0.72,-0.48 1.08,-1.04 1.08,-1.68 l 0,-10.64 c 0,-0.53332 0.22666,-0.90665 0.68,-1.12 0.18666,-0.08 0.54666,-0.11998 1.08,-0.12 0.47999,2e-5 0.89333,0.08 1.24,0.24 0.37333,0.13335 0.55999,0.46668 0.56,1 l 0,10.64 c -1e-5,0.66667 0.34666,1.22667 1.04,1.68 0.69332,0.45334 1.53332,0.68 2.52,0.68 0.95999,0 1.78665,-0.22666 2.48,-0.68 0.71999,-0.48 1.07998,-1.04 1.08,-1.68 l 0,-10.68 c -2e-5,-1.41332 -0.68001,-2.70665 -2.04,-3.88 -1.65334,-1.35998 -3.94668,-2.03998 -6.88,-2.04 -2.98667,2e-5 -5.29333,0.69335 -6.92,2.08 -1.30666,1.06668 -1.96,2.34668 -1.96,3.84 l 0,10.68"
         style="font-size:40px;font-style:normal;font-variant:normal;font-weight:normal;font-stretch:normal;fill:#000000;fill-opacity:1;stroke:none;font-family:Chumbly BRK;-inkscape-font-specification:Chumbly BRK"
         id="path2851" />
      <path
         d="m 192.18755,371.66029 c 0,1.44001 0.66666,2.72 2,3.84 1.62666,1.38667 3.91999,2.08 6.88,2.08 2.98665,0 5.29332,-0.69333 6.92,-2.08 1.33331,-1.12 1.99998,-2.39999 2,-3.84 l 0,-7.12 c -2e-5,-1.41332 -0.68002,-2.70665 -2.04,-3.88 -1.65335,-1.35998 -3.94668,-2.03998 -6.88,-2.04 -2.98667,2e-5 -5.29334,0.69335 -6.92,2.08 -1.30667,1.06668 -1.96,2.34668 -1.96,3.84 l 0,7.12 m 7.12,-7.08 c -1e-5,-0.53332 0.22666,-0.90665 0.68,-1.12 0.18666,-0.08 0.54666,-0.11998 1.08,-0.12 0.47999,2e-5 0.89332,0.08 1.24,0.24 0.37332,0.13335 0.55999,0.46668 0.56,1 l 0,7.04 c -1e-5,0.42667 -0.13335,0.73334 -0.4,0.92 -0.24001,0.18667 -0.70668,0.28001 -1.4,0.28 -0.50668,10e-6 -0.88001,-0.0533 -1.12,-0.16 -0.42668,-0.18666 -0.64001,-0.53333 -0.64,-1.04 l 0,-7.04"
         style="font-size:40px;font-style:normal;font-variant:normal;font-weight:normal;font-stretch:normal;fill:#000000;fill-opacity:1;stroke:none;font-family:Chumbly BRK;-inkscape-font-specification:Chumbly BRK"
         id="path2853" />
      <path
         d="m 212.42192,375.22029 c 0,0.66667 0.34667,1.22667 1.04,1.68 0.69333,0.45334 1.53333,0.68 2.52,0.68 0.96,0 1.78666,-0.22666 2.48,-0.68 0.72,-0.48 1.08,-1.04 1.08,-1.68 l 0,-17.76 c 0,-0.53331 0.22666,-0.90664 0.68,-1.12 0.18666,-0.08 0.54666,-0.11998 1.08,-0.12 0.47999,2e-5 0.89333,0.08 1.24,0.24 0.37333,0.13336 0.55999,0.46669 0.56,1 l 0,17.76 c -1e-5,0.66667 0.34666,1.22667 1.04,1.68 0.69332,0.45334 1.53332,0.68 2.52,0.68 0.95999,0 1.78665,-0.22666 2.48,-0.68 0.71999,-0.48 1.07998,-1.04 1.08,-1.68 l 0,-17.8 c -2e-5,-1.38664 -0.68001,-2.66664 -2.04,-3.84 -1.62668,-1.38664 -3.92001,-2.07997 -6.88,-2.08 -2.98667,3e-5 -5.29333,0.69336 -6.92,2.08 -1.30666,1.12002 -1.96,2.40002 -1.96,3.84 l 0,17.8"
         style="font-size:40px;font-style:normal;font-variant:normal;font-weight:normal;font-stretch:normal;fill:#000000;fill-opacity:1;stroke:none;font-family:Chumbly BRK;-inkscape-font-specification:Chumbly BRK"
         id="path2855" />
      <path
         d="m 232.6563,371.66029 c 0,1.44001 0.66666,2.72 2,3.84 1.62666,1.38667 3.91999,2.08 6.88,2.08 2.98665,0 5.29332,-0.69333 6.92,-2.08 1.33331,-1.12 1.99998,-2.39999 2,-3.84 l 0,-7.12 c -2e-5,-1.41332 -0.68002,-2.70665 -2.04,-3.88 -1.65335,-1.35998 -3.94668,-2.03998 -6.88,-2.04 -2.98667,2e-5 -5.29334,0.69335 -6.92,2.08 -1.30667,1.06668 -1.96,2.34668 -1.96,3.84 l 0,7.12 m 7.12,-7.08 c -1e-5,-0.53332 0.22666,-0.90665 0.68,-1.12 0.18666,-0.08 0.54666,-0.11998 1.08,-0.12 0.47999,2e-5 0.89332,0.08 1.24,0.24 0.37332,0.13335 0.55999,0.46668 0.56,1 l 0,7.04 c -1e-5,0.42667 -0.13335,0.73334 -0.4,0.92 -0.24001,0.18667 -0.70668,0.28001 -1.4,0.28 -0.50668,10e-6 -0.88001,-0.0533 -1.12,-0.16 -0.42668,-0.18666 -0.64001,-0.53333 -0.64,-1.04 l 0,-7.04"
         style="font-size:40px;font-style:normal;font-variant:normal;font-weight:normal;font-stretch:normal;fill:#000000;fill-opacity:1;stroke:none;font-family:Chumbly BRK;-inkscape-font-specification:Chumbly BRK"
         id="path2857" />
      <path
         d="m 252.89067,371.66029 c 0,1.44001 0.66667,2.72 2,3.84 1.62667,1.38667 3.92,2.08 6.88,2.08 2.98666,0 5.29332,-0.69333 6.92,-2.08 1.33332,-1.12 1.99998,-2.39999 2,-3.84 l 0,-17.8 c -2e-5,-0.66664 -0.34668,-1.22664 -1.04,-1.68 -0.69335,-0.45331 -1.53335,-0.67997 -2.52,-0.68 -0.98668,3e-5 -1.82668,0.22669 -2.52,0.68 -0.69334,0.45336 -1.04001,1.01336 -1.04,1.68 l 0,4.76 -1.8,0 c -2.18667,2e-5 -4.12,0.44002 -5.8,1.32 -2.05333,1.09335 -3.08,2.62668 -3.08,4.6 l 0,7.12 m 7.12,-7.12 c 0,-0.34665 0.08,-0.59998 0.24,-0.76 0.29333,-0.29332 0.82666,-0.43998 1.6,-0.44 l 1.72,0 0,8.28 c -1e-5,0.42667 -0.13334,0.73334 -0.4,0.92 -0.24001,0.18667 -0.70667,0.28001 -1.4,0.28 -0.50667,10e-6 -0.88001,-0.0533 -1.12,-0.16 -0.42667,-0.18666 -0.64,-0.53333 -0.64,-1.04 l 0,-7.08"
         style="font-size:40px;font-style:normal;font-variant:normal;font-weight:normal;font-stretch:normal;fill:#000000;fill-opacity:1;stroke:none;font-family:Chumbly BRK;-inkscape-font-specification:Chumbly BRK"
         id="path2859" />
      <path
         d="m 280.24505,370.46029 1.76,0 c 2.98665,1e-5 5.29332,-0.69332 6.92,-2.08 1.33331,-1.11999 1.99998,-2.39999 2,-3.84 -2e-5,-1.41332 -0.68002,-2.70665 -2.04,-3.88 -1.65335,-1.35998 -3.94668,-2.03998 -6.88,-2.04 -2.98667,2e-5 -5.29334,0.69335 -6.92,2.08 -1.30667,1.06668 -1.96,2.34668 -1.96,3.84 l 0,7.12 c 0,2.00001 1.04,3.53334 3.12,4.6 1.62666,0.88 3.54666,1.32 5.76,1.32 l 2.68,0 c 0.95999,0 1.82665,-0.10666 2.6,-0.32 0.77332,-0.24 1.42665,-0.54666 1.96,-0.92 0.53331,-0.4 0.94665,-0.84 1.24,-1.32 0.29331,-0.50666 0.43998,-1.03999 0.44,-1.6 -2e-5,-0.66666 -0.34669,-1.22666 -1.04,-1.68 -0.69335,-0.45333 -1.53335,-0.67999 -2.52,-0.68 -0.82668,10e-6 -1.56002,0.17334 -2.2,0.52 -0.64001,0.34667 -1.05335,0.76001 -1.24,1.24 l -1.84,0 c -1.22668,10e-6 -1.84001,-0.38666 -1.84,-1.16 l 0,-1.2 m 0,-5.88 c -10e-6,-0.53332 0.22666,-0.90665 0.68,-1.12 0.18666,-0.08 0.54666,-0.11998 1.08,-0.12 0.47999,2e-5 0.89332,0.08 1.24,0.24 0.37332,0.13335 0.55999,0.45335 0.56,0.96 -10e-6,0.42668 -0.13335,0.73335 -0.4,0.92 -0.24001,0.18668 -0.70668,0.28001 -1.4,0.28 l -1.76,0 0,-1.16"
         style="font-size:40px;font-style:normal;font-variant:normal;font-weight:normal;font-stretch:normal;fill:#000000;fill-opacity:1;stroke:none;font-family:Chumbly BRK;-inkscape-font-specification:Chumbly BRK"
         id="path2861" />
      <path
         id="path2842"
         d="m 140.4938,345.15625 c -4.77651,5e-5 -8.60394,1.07557 -11.46875,3.21875 l 0.6875,0.71875 c 2.6463,-1.93672 6.2148,-2.93746 10.78125,-2.9375 4.4321,4e-5 7.93905,0.94986 10.5625,2.8125 l 0.6875,-0.71875 c -2.84312,-2.06256 -6.6039,-3.09371 -11.25,-3.09375 z m 0,1.5625 c -4.27974,4e-5 -7.7144,0.95552 -10.28125,2.875 l 0.71875,0.6875 c 2.34408,-1.69624 5.51188,-2.56246 9.5625,-2.5625 3.93987,4e-5 7.04877,0.83311 9.375,2.46875 l 0.6875,-0.71875 c -2.54443,-1.83902 -5.90862,-2.74996 -10.0625,-2.75 z m 0,1.5625 c -3.75739,4e-5 -6.80119,0.82346 -9.09375,2.46875 l 0.6875,0.71875 0.0312,0 c 2.06806,-1.4427 4.82946,-2.18746 8.375,-2.1875 3.4302,3e-5 6.1353,0.71697 8.1875,2.09375 L 149.4,350.65625 c -2.27205,-1.58426 -5.25023,-2.37496 -8.90625,-2.375 z m -0.0937,1.59375 c -3.22453,3e-5 -5.85326,0.67588 -7.8125,2.09375 l 0.75,0.75 c 1.73703,-1.20598 4.05749,-1.84372 7.0625,-1.84375 2.94527,3e-5 5.2399,0.62819 6.96875,1.8125 l 0.75,-0.75 c -1.95237,-1.39075 -4.55198,-2.06247 -7.71875,-2.0625 z"
         style="font-size:40px;font-style:normal;font-variant:normal;font-weight:normal;font-stretch:normal;text-indent:0;text-align:start;text-decoration:none;line-height:normal;letter-spacing:normal;word-spacing:normal;text-transform:none;direction:ltr;block-progression:tb;writing-mode:lr-tb;text-anchor:start;color:#000000;fill:#000000;fill-opacity:1;stroke:none;stroke-width:0.99999982;marker:none;visibility:visible;display:inline;overflow:visible;enable-background:accumulate;font-family:Chumbly BRK;-inkscape-font-specification:Chumbly BRK" />
      <path
         style="font-size:40px;font-style:normal;font-variant:normal;font-weight:normal;font-stretch:normal;text-indent:0;text-align:start;text-decoration:none;line-height:normal;letter-spacing:normal;word-spacing:normal;text-transform:none;direction:ltr;block-progression:tb;writing-mode:lr-tb;text-anchor:start;color:#000000;fill:#000000;fill-opacity:1;stroke:none;stroke-width:0.99999982;marker:none;visibility:visible;display:inline;overflow:visible;enable-background:accumulate;font-family:Chumbly BRK;-inkscape-font-specification:Chumbly BRK"
         d="m 221.4313,345.15625 c -4.77651,5e-5 -8.60394,1.07557 -11.46875,3.21875 l 0.6875,0.71875 c 2.6463,-1.93672 6.2148,-2.93746 10.78125,-2.9375 4.4321,4e-5 7.93905,0.94986 10.5625,2.8125 l 0.6875,-0.71875 c -2.84312,-2.06256 -6.6039,-3.09371 -11.25,-3.09375 z m 0,1.5625 c -4.27974,4e-5 -7.7144,0.95552 -10.28125,2.875 l 0.71875,0.6875 c 2.34408,-1.69624 5.51188,-2.56246 9.5625,-2.5625 3.93987,4e-5 7.04877,0.83311 9.375,2.46875 l 0.6875,-0.71875 c -2.54443,-1.83902 -5.90862,-2.74996 -10.0625,-2.75 z m 0,1.5625 c -3.75739,4e-5 -6.80119,0.82346 -9.09375,2.46875 l 0.6875,0.71875 0.0312,0 c 2.06806,-1.4427 4.82946,-2.18746 8.375,-2.1875 3.4302,3e-5 6.1353,0.71697 8.1875,2.09375 l 0.71875,-0.71875 c -2.27205,-1.58426 -5.25023,-2.37496 -8.90625,-2.375 z m -0.0937,1.59375 c -3.22453,3e-5 -5.85326,0.67588 -7.8125,2.09375 l 0.75,0.75 c 1.73703,-1.20598 4.05749,-1.84372 7.0625,-1.84375 2.94527,3e-5 5.2399,0.62819 6.96875,1.8125 l 0.75,-0.75 c -1.95237,-1.39075 -4.55198,-2.06247 -7.71875,-2.0625 z"
         id="path2844" />
    </g>
    <g
       id="g4033">
      <path
         id="path2887"
         style="font-size:40px;font-style:normal;font-variant:normal;font-weight:normal;font-stretch:normal;fill:#1e90ff;fill-opacity:1;stroke:none;font-family:Chumbly BRK;-inkscape-font-specification:Chumbly BRK"
         d="m 131.48442,413.22728 c 0,0.66667 0.34667,1.22667 1.04,1.68 0.69333,0.45334 1.53333,0.68 2.52,0.68 0.96,0 1.78666,-0.22666 2.48,-0.68 0.72,-0.48 1.08,-1.04 1.08,-1.68 l 0,-17.76 c 0,-0.53331 0.22666,-0.90664 0.68,-1.12 0.18666,-0.08 0.54666,-0.11998 1.08,-0.12 0.47999,2e-5 0.89333,0.08 1.24,0.24 0.37333,0.13336 0.55999,0.46669 0.56,1 l 0,17.76 c -1e-5,0.66667 0.34666,1.22667 1.04,1.68 0.69332,0.45334 1.53332,0.68 2.52,0.68 0.95999,0 1.78665,-0.22666 2.48,-0.68 0.71999,-0.48 1.07998,-1.04 1.08,-1.68 l 0,-17.8 c -2e-5,-1.38664 -0.68001,-2.66664 -2.04,-3.84 -1.62668,-1.38664 -3.92001,-2.07997 -6.88,-2.08 -2.98667,3e-5 -5.29333,0.69336 -6.92,2.08 -1.30666,1.12002 -1.96,2.40002 -1.96,3.84 l 0,17.8" />
      <path
         id="path2889"
         style="font-size:40px;font-style:normal;font-variant:normal;font-weight:normal;font-stretch:normal;fill:#1e90ff;fill-opacity:1;stroke:none;font-family:Chumbly BRK;-inkscape-font-specification:Chumbly BRK"
         d="m 169.5188,402.54728 c -2e-5,-1.97332 -1.04002,-3.50665 -3.12,-4.6 -1.68002,-0.87998 -3.61335,-1.31998 -5.8,-1.32 l -2.64,0 c -1.89334,2e-5 -3.44001,0.44002 -4.64,1.32 -1.06667,0.80002 -1.6,1.73335 -1.6,2.8 0,0.69335 0.33333,1.26668 1,1.72 0.69333,0.45335 1.54666,0.68001 2.56,0.68 0.82666,10e-6 1.55999,-0.17332 2.2,-0.52 0.63999,-0.34665 1.05332,-0.77332 1.24,-1.28 l 1.84,0 c 0.95999,2e-5 1.54665,0.22668 1.76,0.68 0.0533,0.16002 0.08,0.33335 0.08,0.52 l 0,1.2 -1.8,0 c -2.98667,1e-5 -5.29334,0.69335 -6.92,2.08 -1.30667,1.06668 -1.96,2.34668 -1.96,3.84 0,1.44001 0.66666,2.72 2,3.84 1.62666,1.38667 3.91999,2.08 6.88,2.08 2.98665,0 5.29332,-0.69333 6.92,-2.08 1.33331,-1.12 1.99998,-2.39999 2,-3.84 l 0,-7.12 m -7.12,7.08 c -1e-5,0.42667 -0.13335,0.73334 -0.4,0.92 -0.24001,0.18667 -0.70668,0.28001 -1.4,0.28 -0.48001,1e-5 -0.89334,-0.0667 -1.24,-0.2 -0.34668,-0.13333 -0.52001,-0.45333 -0.52,-0.96 -1e-5,-0.50666 0.22666,-0.86666 0.68,-1.08 0.18666,-0.08 0.54666,-0.11999 1.08,-0.12 l 1.8,0 0,1.16" />
      <path
         id="path2891"
         style="font-size:40px;font-style:normal;font-variant:normal;font-weight:normal;font-stretch:normal;fill:#1e90ff;fill-opacity:1;stroke:none;font-family:Chumbly BRK;-inkscape-font-specification:Chumbly BRK"
         d="m 171.95317,413.22728 c 0,0.66667 0.34667,1.22667 1.04,1.68 0.69333,0.45334 1.53333,0.68 2.52,0.68 0.96,0 1.78666,-0.22666 2.48,-0.68 0.72,-0.48 1.08,-1.04 1.08,-1.68 l 0,-10.64 c 0,-0.53332 0.22666,-0.90665 0.68,-1.12 0.18666,-0.08 0.54666,-0.11998 1.08,-0.12 0.47999,2e-5 0.89333,0.08 1.24,0.24 0.37333,0.13335 0.55999,0.46668 0.56,1 l 0,10.64 c -1e-5,0.66667 0.34666,1.22667 1.04,1.68 0.69332,0.45334 1.53332,0.68 2.52,0.68 0.95999,0 1.78665,-0.22666 2.48,-0.68 0.71999,-0.48 1.07998,-1.04 1.08,-1.68 l 0,-10.68 c -2e-5,-1.41332 -0.68001,-2.70665 -2.04,-3.88 -1.65334,-1.35998 -3.94668,-2.03998 -6.88,-2.04 -2.98667,2e-5 -5.29333,0.69335 -6.92,2.08 -1.30666,1.06668 -1.96,2.34668 -1.96,3.84 l 0,10.68" />
      <path
         id="path2893"
         style="font-size:40px;font-style:normal;font-variant:normal;font-weight:normal;font-stretch:normal;fill:#1e90ff;fill-opacity:1;stroke:none;font-family:Chumbly BRK;-inkscape-font-specification:Chumbly BRK"
         d="m 192.18755,409.66728 c 0,1.44001 0.66666,2.72 2,3.84 1.62666,1.38667 3.91999,2.08 6.88,2.08 2.98665,0 5.29332,-0.69333 6.92,-2.08 1.33331,-1.12 1.99998,-2.39999 2,-3.84 l 0,-7.12 c -2e-5,-1.41332 -0.68002,-2.70665 -2.04,-3.88 -1.65335,-1.35998 -3.94668,-2.03998 -6.88,-2.04 -2.98667,2e-5 -5.29334,0.69335 -6.92,2.08 -1.30667,1.06668 -1.96,2.34668 -1.96,3.84 l 0,7.12 m 7.12,-7.08 c -1e-5,-0.53332 0.22666,-0.90665 0.68,-1.12 0.18666,-0.08 0.54666,-0.11998 1.08,-0.12 0.47999,2e-5 0.89332,0.08 1.24,0.24 0.37332,0.13335 0.55999,0.46668 0.56,1 l 0,7.04 c -1e-5,0.42667 -0.13335,0.73334 -0.4,0.92 -0.24001,0.18667 -0.70668,0.28001 -1.4,0.28 -0.50668,1e-5 -0.88001,-0.0533 -1.12,-0.16 -0.42668,-0.18666 -0.64001,-0.53333 -0.64,-1.04 l 0,-7.04" />
      <path
         id="path2895"
         style="font-size:40px;font-style:normal;font-variant:normal;font-weight:normal;font-stretch:normal;fill:#1e90ff;fill-opacity:1;stroke:none;font-family:Chumbly BRK;-inkscape-font-specification:Chumbly BRK"
         d="m 212.42192,413.22728 c 0,0.66667 0.34667,1.22667 1.04,1.68 0.69333,0.45334 1.53333,0.68 2.52,0.68 0.96,0 1.78666,-0.22666 2.48,-0.68 0.72,-0.48 1.08,-1.04 1.08,-1.68 l 0,-17.76 c 0,-0.53331 0.22666,-0.90664 0.68,-1.12 0.18666,-0.08 0.54666,-0.11998 1.08,-0.12 0.47999,2e-5 0.89333,0.08 1.24,0.24 0.37333,0.13336 0.55999,0.46669 0.56,1 l 0,17.76 c -1e-5,0.66667 0.34666,1.22667 1.04,1.68 0.69332,0.45334 1.53332,0.68 2.52,0.68 0.95999,0 1.78665,-0.22666 2.48,-0.68 0.71999,-0.48 1.07998,-1.04 1.08,-1.68 l 0,-17.8 c -2e-5,-1.38664 -0.68001,-2.66664 -2.04,-3.84 -1.62668,-1.38664 -3.92001,-2.07997 -6.88,-2.08 -2.98667,3e-5 -5.29333,0.69336 -6.92,2.08 -1.30666,1.12002 -1.96,2.40002 -1.96,3.84 l 0,17.8" />
      <path
         id="path2897"
         style="font-size:40px;font-style:normal;font-variant:normal;font-weight:normal;font-stretch:normal;fill:#1e90ff;fill-opacity:1;stroke:none;font-family:Chumbly BRK;-inkscape-font-specification:Chumbly BRK"
         d="m 232.6563,409.66728 c 0,1.44001 0.66666,2.72 2,3.84 1.62666,1.38667 3.91999,2.08 6.88,2.08 2.98665,0 5.29332,-0.69333 6.92,-2.08 1.33331,-1.12 1.99998,-2.39999 2,-3.84 l 0,-7.12 c -2e-5,-1.41332 -0.68002,-2.70665 -2.04,-3.88 -1.65335,-1.35998 -3.94668,-2.03998 -6.88,-2.04 -2.98667,2e-5 -5.29334,0.69335 -6.92,2.08 -1.30667,1.06668 -1.96,2.34668 -1.96,3.84 l 0,7.12 m 7.12,-7.08 c -1e-5,-0.53332 0.22666,-0.90665 0.68,-1.12 0.18666,-0.08 0.54666,-0.11998 1.08,-0.12 0.47999,2e-5 0.89332,0.08 1.24,0.24 0.37332,0.13335 0.55999,0.46668 0.56,1 l 0,7.04 c -1e-5,0.42667 -0.13335,0.73334 -0.4,0.92 -0.24001,0.18667 -0.70668,0.28001 -1.4,0.28 -0.50668,1e-5 -0.88001,-0.0533 -1.12,-0.16 -0.42668,-0.18666 -0.64001,-0.53333 -0.64,-1.04 l 0,-7.04" />
      <path
         id="path2899"
         style="font-size:40px;font-style:normal;font-variant:normal;font-weight:normal;font-stretch:normal;fill:#1e90ff;fill-opacity:1;stroke:none;font-family:Chumbly BRK;-inkscape-font-specification:Chumbly BRK"
         d="m 252.89067,409.66728 c 0,1.44001 0.66667,2.72 2,3.84 1.62667,1.38667 3.92,2.08 6.88,2.08 2.98666,0 5.29332,-0.69333 6.92,-2.08 1.33332,-1.12 1.99998,-2.39999 2,-3.84 l 0,-17.8 c -2e-5,-0.66664 -0.34668,-1.22664 -1.04,-1.68 -0.69335,-0.45331 -1.53335,-0.67997 -2.52,-0.68 -0.98668,3e-5 -1.82668,0.22669 -2.52,0.68 -0.69334,0.45336 -1.04001,1.01336 -1.04,1.68 l 0,4.76 -1.8,0 c -2.18667,2e-5 -4.12,0.44002 -5.8,1.32 -2.05333,1.09335 -3.08,2.62668 -3.08,4.6 l 0,7.12 m 7.12,-7.12 c 0,-0.34665 0.08,-0.59998 0.24,-0.76 0.29333,-0.29332 0.82666,-0.43998 1.6,-0.44 l 1.72,0 0,8.28 c -1e-5,0.42667 -0.13334,0.73334 -0.4,0.92 -0.24001,0.18667 -0.70667,0.28001 -1.4,0.28 -0.50667,1e-5 -0.88001,-0.0533 -1.12,-0.16 -0.42667,-0.18666 -0.64,-0.53333 -0.64,-1.04 l 0,-7.08" />
      <path
         id="path2901"
         style="font-size:40px;font-style:normal;font-variant:normal;font-weight:normal;font-stretch:normal;fill:#1e90ff;fill-opacity:1;stroke:none;font-family:Chumbly BRK;-inkscape-font-specification:Chumbly BRK"
         d="m 280.24505,408.46728 1.76,0 c 2.98665,10e-6 5.29332,-0.69332 6.92,-2.08 1.33331,-1.11999 1.99998,-2.39999 2,-3.84 -2e-5,-1.41332 -0.68002,-2.70665 -2.04,-3.88 -1.65335,-1.35998 -3.94668,-2.03998 -6.88,-2.04 -2.98667,2e-5 -5.29334,0.69335 -6.92,2.08 -1.30667,1.06668 -1.96,2.34668 -1.96,3.84 l 0,7.12 c 0,2.00001 1.04,3.53334 3.12,4.6 1.62666,0.88 3.54666,1.32 5.76,1.32 l 2.68,0 c 0.95999,0 1.82665,-0.10666 2.6,-0.32 0.77332,-0.24 1.42665,-0.54666 1.96,-0.92 0.53331,-0.4 0.94665,-0.84 1.24,-1.32 0.29331,-0.50666 0.43998,-1.03999 0.44,-1.6 -2e-5,-0.66666 -0.34669,-1.22666 -1.04,-1.68 -0.69335,-0.45333 -1.53335,-0.67999 -2.52,-0.68 -0.82668,1e-5 -1.56002,0.17334 -2.2,0.52 -0.64001,0.34667 -1.05335,0.76001 -1.24,1.24 l -1.84,0 c -1.22668,1e-5 -1.84001,-0.38666 -1.84,-1.16 l 0,-1.2 m 0,-5.88 c -10e-6,-0.53332 0.22666,-0.90665 0.68,-1.12 0.18666,-0.08 0.54666,-0.11998 1.08,-0.12 0.47999,2e-5 0.89332,0.08 1.24,0.24 0.37332,0.13335 0.55999,0.45335 0.56,0.96 -10e-6,0.42668 -0.13335,0.73335 -0.4,0.92 -0.24001,0.18668 -0.70668,0.28001 -1.4,0.28 l -1.76,0 0,-1.16" />
      <path
         style="font-size:40px;font-style:normal;font-variant:normal;font-weight:normal;font-stretch:normal;text-indent:0;text-align:start;text-decoration:none;line-height:normal;letter-spacing:normal;word-spacing:normal;text-transform:none;direction:ltr;block-progression:tb;writing-mode:lr-tb;text-anchor:start;color:#000000;fill:#1e90ff;fill-opacity:1;stroke:none;stroke-width:0.99999982;marker:none;visibility:visible;display:inline;overflow:visible;enable-background:accumulate;font-family:Chumbly BRK;-inkscape-font-specification:Chumbly BRK"
         d="m 140.4938,383.16324 c -4.77651,5e-5 -8.60394,1.07557 -11.46875,3.21875 l 0.6875,0.71875 c 2.6463,-1.93672 6.2148,-2.93746 10.78125,-2.9375 4.4321,4e-5 7.93905,0.94986 10.5625,2.8125 l 0.6875,-0.71875 c -2.84312,-2.06256 -6.6039,-3.09371 -11.25,-3.09375 z m 0,1.5625 c -4.27974,4e-5 -7.7144,0.95552 -10.28125,2.875 l 0.71875,0.6875 c 2.34408,-1.69624 5.51188,-2.56246 9.5625,-2.5625 3.93987,4e-5 7.04877,0.83311 9.375,2.46875 l 0.6875,-0.71875 c -2.54443,-1.83902 -5.90862,-2.74996 -10.0625,-2.75 z m 0,1.5625 c -3.75739,4e-5 -6.80119,0.82346 -9.09375,2.46875 l 0.6875,0.71875 0.0312,0 c 2.06806,-1.4427 4.82946,-2.18746 8.375,-2.1875 3.4302,3e-5 6.1353,0.71697 8.1875,2.09375 L 149.4,388.66324 c -2.27205,-1.58426 -5.25023,-2.37496 -8.90625,-2.375 z m -0.0937,1.59375 c -3.22453,3e-5 -5.85326,0.67588 -7.8125,2.09375 l 0.75,0.75 c 1.73703,-1.20598 4.05749,-1.84372 7.0625,-1.84375 2.94527,3e-5 5.2399,0.62819 6.96875,1.8125 l 0.75,-0.75 c -1.95237,-1.39075 -4.55198,-2.06247 -7.71875,-2.0625 z"
         id="path2903" />
      <path
         id="path2905"
         d="m 221.4313,383.16324 c -4.77651,5e-5 -8.60394,1.07557 -11.46875,3.21875 l 0.6875,0.71875 c 2.6463,-1.93672 6.2148,-2.93746 10.78125,-2.9375 4.4321,4e-5 7.93905,0.94986 10.5625,2.8125 l 0.6875,-0.71875 c -2.84312,-2.06256 -6.6039,-3.09371 -11.25,-3.09375 z m 0,1.5625 c -4.27974,4e-5 -7.7144,0.95552 -10.28125,2.875 l 0.71875,0.6875 c 2.34408,-1.69624 5.51188,-2.56246 9.5625,-2.5625 3.93987,4e-5 7.04877,0.83311 9.375,2.46875 l 0.6875,-0.71875 c -2.54443,-1.83902 -5.90862,-2.74996 -10.0625,-2.75 z m 0,1.5625 c -3.75739,4e-5 -6.80119,0.82346 -9.09375,2.46875 l 0.6875,0.71875 0.0312,0 c 2.06806,-1.4427 4.82946,-2.18746 8.375,-2.1875 3.4302,3e-5 6.1353,0.71697 8.1875,2.09375 l 0.71875,-0.71875 c -2.27205,-1.58426 -5.25023,-2.37496 -8.90625,-2.375 z m -0.0937,1.59375 c -3.22453,3e-5 -5.85326,0.67588 -7.8125,2.09375 l 0.75,0.75 c 1.73703,-1.20598 4.05749,-1.84372 7.0625,-1.84375 2.94527,3e-5 5.2399,0.62819 6.96875,1.8125 l 0.75,-0.75 c -1.95237,-1.39075 -4.55198,-2.06247 -7.71875,-2.0625 z"
         style="font-size:40px;font-style:normal;font-variant:normal;font-weight:normal;font-stretch:normal;text-indent:0;text-align:start;text-decoration:none;line-height:normal;letter-spacing:normal;word-spacing:normal;text-transform:none;direction:ltr;block-progression:tb;writing-mode:lr-tb;text-anchor:start;color:#000000;fill:#1e90ff;fill-opacity:1;stroke:none;stroke-width:0.99999982;marker:none;visibility:visible;display:inline;overflow:visible;enable-background:accumulate;font-family:Chumbly BRK;-inkscape-font-specification:Chumbly BRK" />
    </g>
    <g
       id="g4067">
      <path
         id="path4009"
         style="font-size:40px;font-style:normal;font-variant:normal;font-weight:normal;font-stretch:normal;fill:#000000;fill-opacity:1;stroke:none;font-family:Chumbly BRK;-inkscape-font-specification:Chumbly BRK"
         d="m 75.23442,375.22029 c 0,0.66667 0.34667,1.22667 1.04,1.68 0.69333,0.45334 1.53333,0.68 2.52,0.68 0.96,0 1.78666,-0.22666 2.48,-0.68 0.72,-0.48 1.08,-1.04 1.08,-1.68 l 0,-17.76 c 0,-0.53331 0.22666,-0.90664 0.68,-1.12 0.18666,-0.08 0.54666,-0.11998 1.08,-0.12 0.47999,2e-5 0.89333,0.08 1.24,0.24 0.37333,0.13336 0.55999,0.46669 0.56,1 l 0,17.76 c -1e-5,0.66667 0.34666,1.22667 1.04,1.68 0.69332,0.45334 1.53332,0.68 2.52,0.68 0.95999,0 1.78665,-0.22666 2.48,-0.68 0.71999,-0.48 1.07998,-1.04 1.08,-1.68 l 0,-17.8 c -2e-5,-1.38664 -0.68001,-2.66664 -2.04,-3.84 -1.62668,-1.38664 -3.92001,-2.07997 -6.88,-2.08 -2.98667,3e-5 -5.29333,0.69336 -6.92,2.08 -1.30666,1.12002 -1.96,2.40002 -1.96,3.84 l 0,17.8" />
      <path
         style="font-size:40px;font-style:normal;font-variant:normal;font-weight:normal;font-stretch:normal;text-indent:0;text-align:start;text-decoration:none;line-height:normal;letter-spacing:normal;word-spacing:normal;text-transform:none;direction:ltr;block-progression:tb;writing-mode:lr-tb;text-anchor:start;color:#000000;fill:#000000;fill-opacity:1;stroke:none;stroke-width:0.99999982;marker:none;visibility:visible;display:inline;overflow:visible;enable-background:accumulate;font-family:Chumbly BRK;-inkscape-font-specification:Chumbly BRK"
         d="m 84.2438,345.15625 c -4.77651,5e-5 -8.60394,1.07557 -11.46875,3.21875 l 0.6875,0.71875 c 2.6463,-1.93672 6.2148,-2.93746 10.78125,-2.9375 4.4321,4e-5 7.93905,0.94986 10.5625,2.8125 L 95.4938,348.25 c -2.84312,-2.06256 -6.6039,-3.09371 -11.25,-3.09375 z m 0,1.5625 c -4.27974,4e-5 -7.7144,0.95552 -10.28125,2.875 l 0.71875,0.6875 c 2.34408,-1.69624 5.51188,-2.56246 9.5625,-2.5625 3.93987,4e-5 7.04877,0.83311 9.375,2.46875 l 0.6875,-0.71875 c -2.54443,-1.83902 -5.90862,-2.74996 -10.0625,-2.75 z m 0,1.5625 c -3.75739,4e-5 -6.80119,0.82346 -9.09375,2.46875 l 0.6875,0.71875 0.0312,0 c 2.06806,-1.4427 4.82946,-2.18746 8.375,-2.1875 3.4302,3e-5 6.1353,0.71697 8.1875,2.09375 L 93.15,350.65625 c -2.27205,-1.58426 -5.25023,-2.37496 -8.90625,-2.375 z m -0.0937,1.59375 c -3.22453,3e-5 -5.85326,0.67588 -7.8125,2.09375 l 0.75,0.75 c 1.73703,-1.20598 4.05749,-1.84372 7.0625,-1.84375 2.94527,3e-5 5.2399,0.62819 6.96875,1.8125 l 0.75,-0.75 c -1.95237,-1.39075 -4.55198,-2.06247 -7.71875,-2.0625 z"
         id="path4011" />
    </g>
    <g
       id="g4071">
      <path
         d="m 75.23442,413.22728 c 0,0.66667 0.34667,1.22667 1.04,1.68 0.69333,0.45334 1.53333,0.68 2.52,0.68 0.96,0 1.78666,-0.22666 2.48,-0.68 0.72,-0.48 1.08,-1.04 1.08,-1.68 l 0,-17.76 c 0,-0.53331 0.22666,-0.90664 0.68,-1.12 0.18666,-0.08 0.54666,-0.11998 1.08,-0.12 0.47999,2e-5 0.89333,0.08 1.24,0.24 0.37333,0.13336 0.55999,0.46669 0.56,1 l 0,17.76 c -1e-5,0.66667 0.34666,1.22667 1.04,1.68 0.69332,0.45334 1.53332,0.68 2.52,0.68 0.95999,0 1.78665,-0.22666 2.48,-0.68 0.71999,-0.48 1.07998,-1.04 1.08,-1.68 l 0,-17.8 c -2e-5,-1.38664 -0.68001,-2.66664 -2.04,-3.84 -1.62668,-1.38664 -3.92001,-2.07997 -6.88,-2.08 -2.98667,3e-5 -5.29333,0.69336 -6.92,2.08 -1.30666,1.12002 -1.96,2.40002 -1.96,3.84 l 0,17.8"
         style="font-size:40px;font-style:normal;font-variant:normal;font-weight:normal;font-stretch:normal;fill:#1e90ff;fill-opacity:1;stroke:none;font-family:Chumbly BRK;-inkscape-font-specification:Chumbly BRK"
         id="path4013" />
      <path
         id="path4015"
         d="m 84.2438,383.16324 c -4.77651,5e-5 -8.60394,1.07557 -11.46875,3.21875 l 0.6875,0.71875 c 2.6463,-1.93672 6.2148,-2.93746 10.78125,-2.9375 4.4321,4e-5 7.93905,0.94986 10.5625,2.8125 l 0.6875,-0.71875 c -2.84312,-2.06256 -6.6039,-3.09371 -11.25,-3.09375 z m 0,1.5625 c -4.27974,4e-5 -7.7144,0.95552 -10.28125,2.875 l 0.71875,0.6875 c 2.34408,-1.69624 5.51188,-2.56246 9.5625,-2.5625 3.93987,4e-5 7.04877,0.83311 9.375,2.46875 l 0.6875,-0.71875 c -2.54443,-1.83902 -5.90862,-2.74996 -10.0625,-2.75 z m 0,1.5625 c -3.75739,4e-5 -6.80119,0.82346 -9.09375,2.46875 l 0.6875,0.71875 0.0312,0 c 2.06806,-1.4427 4.82946,-2.18746 8.375,-2.1875 3.4302,3e-5 6.1353,0.71697 8.1875,2.09375 L 93.15,388.66324 c -2.27205,-1.58426 -5.25023,-2.37496 -8.90625,-2.375 z m -0.0937,1.59375 c -3.22453,3e-5 -5.85326,0.67588 -7.8125,2.09375 l 0.75,0.75 c 1.73703,-1.20598 4.05749,-1.84372 7.0625,-1.84375 2.94527,3e-5 5.2399,0.62819 6.96875,1.8125 l 0.75,-0.75 c -1.95237,-1.39075 -4.55198,-2.06247 -7.71875,-2.0625 z"
         style="font-size:40px;font-style:normal;font-variant:normal;font-weight:normal;font-stretch:normal;text-indent:0;text-align:start;text-decoration:none;line-height:normal;letter-spacing:normal;word-spacing:normal;text-transform:none;direction:ltr;block-progression:tb;writing-mode:lr-tb;text-anchor:start;color:#000000;fill:#1e90ff;fill-opacity:1;stroke:none;stroke-width:0.99999982;marker:none;visibility:visible;display:inline;overflow:visible;enable-background:accumulate;font-family:Chumbly BRK;-inkscape-font-specification:Chumbly BRK" />
    </g>
    <path
       id="path4176"
       style="font-size:40px;font-style:normal;font-variant:normal;font-weight:normal;font-stretch:normal;fill:#000000;fill-opacity:1;stroke:none;filter:url(#filter4136);font-family:Chumbly BRK;-inkscape-font-specification:Chumbly BRK"
       d="m 74.385548,453.00204 c 0,0.66667 0.34667,1.22667 1.04,1.68 0.69333,0.45334 1.53333,0.68 2.52,0.68 0.96,0 1.78666,-0.22666 2.48,-0.68 0.72,-0.48 1.08,-1.04 1.08,-1.68 l 0,-17.76 c 0,-0.53331 0.22666,-0.90664 0.68,-1.12 0.18666,-0.08 0.54666,-0.11998 1.08,-0.12 0.47999,2e-5 0.89333,0.08 1.24,0.24 0.37333,0.13336 0.55999,0.46669 0.56,1 l 0,17.76 c -1e-5,0.66667 0.34666,1.22667 1.04,1.68 0.69332,0.45334 1.53332,0.68 2.52,0.68 0.95999,0 1.78665,-0.22666 2.48,-0.68 0.71999,-0.48 1.07998,-1.04 1.08,-1.68 l 0,-17.8 c -2e-5,-1.38664 -0.68001,-2.66664 -2.04,-3.84 -1.62668,-1.38664 -3.92001,-2.07997 -6.88,-2.08 -2.98667,3e-5 -5.29333,0.69336 -6.92,2.08 -1.30666,1.12002 -1.96,2.40002 -1.96,3.84 l 0,17.8" />
    <path
       style="font-size:40px;font-style:normal;font-variant:normal;font-weight:normal;font-stretch:normal;text-indent:0;text-align:start;text-decoration:none;line-height:normal;letter-spacing:normal;word-spacing:normal;text-transform:none;direction:ltr;block-progression:tb;writing-mode:lr-tb;text-anchor:start;color:#000000;fill:#000000;fill-opacity:1;stroke:none;stroke-width:0.99999982;marker:none;visibility:visible;display:inline;overflow:visible;filter:url(#filter4168);enable-background:accumulate;font-family:Chumbly BRK;-inkscape-font-specification:Chumbly BRK"
       d="m 83.394928,422.938 c -4.77651,5e-5 -8.60394,1.07557 -11.46875,3.21875 l 0.6875,0.71875 c 2.6463,-1.93672 6.2148,-2.93746 10.78125,-2.9375 4.4321,4e-5 7.93905,0.94986 10.5625,2.8125 l 0.6875,-0.71875 c -2.84312,-2.06256 -6.6039,-3.09371 -11.25,-3.09375 z m 0,1.5625 c -4.27974,4e-5 -7.7144,0.95552 -10.28125,2.875 l 0.71875,0.6875 c 2.34408,-1.69624 5.51188,-2.56246 9.5625,-2.5625 3.93987,4e-5 7.04877,0.83311 9.375,2.46875 l 0.6875,-0.71875 c -2.54443,-1.83902 -5.90862,-2.74996 -10.0625,-2.75 z m 0,1.5625 c -3.75739,4e-5 -6.80119,0.82346 -9.09375,2.46875 l 0.6875,0.71875 0.0312,0 c 2.06806,-1.4427 4.82946,-2.18746 8.375,-2.1875 3.4302,3e-5 6.1353,0.71697 8.1875,2.09375 l 0.71875,-0.71875 c -2.27205,-1.58426 -5.25023,-2.37496 -8.90625,-2.375 z m -0.0937,1.59375 c -3.22453,3e-5 -5.85326,0.67588 -7.8125,2.09375 l 0.75,0.75 c 1.73703,-1.20598 4.05749,-1.84372 7.0625,-1.84375 2.94527,3e-5 5.2399,0.62819 6.96875,1.8125 l 0.75,-0.75 c -1.95237,-1.39075 -4.55198,-2.06247 -7.71875,-2.0625 z"
       id="path4178" />
    <path
       d="m 74.385548,453.00204 c 0,0.66667 0.34667,1.22667 1.04,1.68 0.69333,0.45334 1.53333,0.68 2.52,0.68 0.96,0 1.78666,-0.22666 2.48,-0.68 0.72,-0.48 1.08,-1.04 1.08,-1.68 l 0,-17.76 c 0,-0.53331 0.22666,-0.90664 0.68,-1.12 0.18666,-0.08 0.54666,-0.11998 1.08,-0.12 0.47999,2e-5 0.89333,0.08 1.24,0.24 0.37333,0.13336 0.55999,0.46669 0.56,1 l 0,17.76 c -1e-5,0.66667 0.34666,1.22667 1.04,1.68 0.69332,0.45334 1.53332,0.68 2.52,0.68 0.95999,0 1.78665,-0.22666 2.48,-0.68 0.71999,-0.48 1.07998,-1.04 1.08,-1.68 l 0,-17.8 c -2e-5,-1.38664 -0.68001,-2.66664 -2.04,-3.84 -1.62668,-1.38664 -3.92001,-2.07997 -6.88,-2.08 -2.98667,3e-5 -5.29333,0.69336 -6.92,2.08 -1.30666,1.12002 -1.96,2.40002 -1.96,3.84 l 0,17.8"
       style="font-size:40px;font-style:normal;font-variant:normal;font-weight:normal;font-stretch:normal;fill:#1e90ff;fill-opacity:1;stroke:none;font-family:Chumbly BRK;-inkscape-font-specification:Chumbly BRK"
       id="path4180" />
    <path
       id="path4182"
       d="m 83.394928,422.938 c -4.77651,5e-5 -8.60394,1.07557 -11.46875,3.21875 l 0.6875,0.71875 c 2.6463,-1.93672 6.2148,-2.93746 10.78125,-2.9375 4.4321,4e-5 7.93905,0.94986 10.5625,2.8125 l 0.6875,-0.71875 c -2.84312,-2.06256 -6.6039,-3.09371 -11.25,-3.09375 z m 0,1.5625 c -4.27974,4e-5 -7.7144,0.95552 -10.28125,2.875 l 0.71875,0.6875 c 2.34408,-1.69624 5.51188,-2.56246 9.5625,-2.5625 3.93987,4e-5 7.04877,0.83311 9.375,2.46875 l 0.6875,-0.71875 c -2.54443,-1.83902 -5.90862,-2.74996 -10.0625,-2.75 z m 0,1.5625 c -3.75739,4e-5 -6.80119,0.82346 -9.09375,2.46875 l 0.6875,0.71875 0.0312,0 c 2.06806,-1.4427 4.82946,-2.18746 8.375,-2.1875 3.4302,3e-5 6.1353,0.71697 8.1875,2.09375 l 0.71875,-0.71875 c -2.27205,-1.58426 -5.25023,-2.37496 -8.90625,-2.375 z m -0.0937,1.59375 c -3.22453,3e-5 -5.85326,0.67588 -7.8125,2.09375 l 0.75,0.75 c 1.73703,-1.20598 4.05749,-1.84372 7.0625,-1.84375 2.94527,3e-5 5.2399,0.62819 6.96875,1.8125 l 0.75,-0.75 c -1.95237,-1.39075 -4.55198,-2.06247 -7.71875,-2.0625 z"
       style="font-size:40px;font-style:normal;font-variant:normal;font-weight:normal;font-stretch:normal;text-indent:0;text-align:start;text-decoration:none;line-height:normal;letter-spacing:normal;word-spacing:normal;text-transform:none;direction:ltr;block-progression:tb;writing-mode:lr-tb;text-anchor:start;color:#000000;fill:#1e90ff;fill-opacity:1;stroke:none;stroke-width:0.99999982;marker:none;visibility:visible;display:inline;overflow:visible;enable-background:accumulate;font-family:Chumbly BRK;-inkscape-font-specification:Chumbly BRK" />
  </g>
</svg>
